<svg id="Capa_1" data-name="Capa 1" xmlns="http://www.w3.org/2000/svg" viewBox="0 0 340.79 408.86"><path d="M189.61,625.49c-4.64-1-9.36-1.67-13.91-3-29.14-8.21-47.55-30.67-48.84-61.25C125.54,529.69,129,498.56,141,469c7.75-19.1,19-35.62,37.88-45.71a74.58,74.58,0,0,1,37.18-8.92c4.11.08,8.45,2.17,12.21,4.21,6.06,3.29,11.67,7.39,17.55,11q51.3,31.67,102.57-.08c4.74-2.94,9.58-5.77,14-9.11,8.18-6.13,17.17-6.9,26.89-5.47,26.51,3.9,45.24,18.42,57.87,41.59,11.27,20.68,16.34,43.15,18.6,66.29a327.48,327.48,0,0,1,1.56,35.84c-.43,35.66-24.9,62.2-60.37,66.11a15.62,15.62,0,0,0-2.6.75Z" transform="translate(-126.6 -216.63)"/><path d="M294.33,413.63c-54.84-.33-98.71-44.48-98.3-98.93a98.53,98.53,0,0,1,98.81-98.07c53.42,0,98.62,44.31,98.14,98.77C392.5,370.17,348.47,414,294.33,413.63Z" transform="translate(-126.6 -216.63)"/></svg>