<svg id="Capa_1" data-name="Capa 1" xmlns="http://www.w3.org/2000/svg" viewBox="0 0 355.63 74.9"><path d="M165.73,398.4c4.77,2.68,9,5.61,10.06,11.31a11.74,11.74,0,0,1-1.1,6.87c-2.37,5.52-6,10.26-9.48,15.06s-7.23,9.75-10.54,14.82a28.82,28.82,0,0,0-5,15,1.21,1.21,0,0,1-.11.32c-.1,0-.19.08-.24.05-4.4-2.31-8.16-5.24-9.42-10.36-.75-3.07.18-6,1.21-8.87,1.81-5,4.86-9.32,8.08-13.5s6.59-8.33,9.71-12.62a33.15,33.15,0,0,0,6.38-14.41C165.48,401,165.57,399.81,165.73,398.4Z" transform="translate(-117.95 -386.97)"/><path d="M144.08,387c3.43,1.76,6.48,3.94,8.53,7.3s1.89,7,.41,10.56a58.73,58.73,0,0,1-7.15,12c-3.92,5.34-7.94,10.61-11.73,16.05a34,34,0,0,0-5.83,13.52c-.24,1.28-.32,2.6-.5,4.07a21.69,21.69,0,0,1-5.49-3.72c-4.31-3.88-5.33-8.55-3.53-14a39.68,39.68,0,0,1,5.86-11.32c3.48-4.68,7.14-9.22,10.67-13.86,3.32-4.37,6.27-9,7.65-14.37C143.47,391.19,143.7,389.13,144.08,387Z" transform="translate(-117.95 -386.97)"/><path d="M214.71,435.66c-.73,2.57-1.35,4.86-2.08,7.13-.08.26-.73.48-1.13.48-4.75,0-9.5,0-14.26,0h-9.68c2.44-12.58,4.85-25,7.27-37.54H220c-.67,2.37-1.31,4.73-2,7.07-.07.24-.68.44-1.05.44-4.19,0-8.39.06-12.58,0-1,0-1.41.27-1.56,1.26-.31,2-.74,3.9-1.14,6h14.16c-.7,2.5-1.34,4.87-2.07,7.21-.08.23-.7.41-1.08.41-3.67,0-7.35,0-11,0h-1.47l-1.51,7.52Z" transform="translate(-117.95 -386.97)"/><path d="M241.1,443.23H233v-3.16c-.64.63-1.13,1.13-1.64,1.6-3.38,3.14-9,3.07-11.9-.15a10,10,0,0,1-2.15-6.34,23.68,23.68,0,0,1,1.81-10.77,15.49,15.49,0,0,1,16.73-9.28c.35.06.7.08,1.16.13.62-3.11,1.22-6.15,1.83-9.2a2.42,2.42,0,0,0,.06-.47c.06-1.23.63-1.64,1.91-1.58,2.58.12,5.18,0,8,0C246.22,417.17,243.67,430.17,241.1,443.23Zm-5.38-20.63c-2.82-.76-5-.2-6.27,1.75a16,16,0,0,0-2.61,9.89c.09,1.69,1.11,2.44,2.81,2.4a3.45,3.45,0,0,0,3.37-2.76C234,430.17,234.83,426.4,235.72,422.6Z" transform="translate(-117.95 -386.97)"/><path d="M378.27,443.23h-9.43c2.44-12.54,4.85-25,7.29-37.56,1.58,0,3.09,0,4.6,0,3.51,0,7-.14,10.53.22,7.2.73,10.68,5.55,9.35,12.66-.68,3.65-2,7-5.26,9.21a15.11,15.11,0,0,1-7.52,2.5,52.4,52.4,0,0,1-5.74.16c-1.11,0-1.41.4-1.58,1.38-.61,3.45-1.3,6.89-2,10.33C378.48,442.49,378.37,442.83,378.27,443.23Zm4.06-20.55c1.33,0,2.52.05,3.7,0,3.93-.2,5.21-2.63,5.23-5.91a3,3,0,0,0-2.77-3.2c-1.41-.14-2.85,0-4.37,0C383.54,416.51,383,419.46,382.33,422.68Z" transform="translate(-117.95 -386.97)"/><path d="M343.85,443.29v-3l-.37-.33a6.69,6.69,0,0,1-.67,1.05,8.68,8.68,0,0,1-9.06,2.59,6.73,6.73,0,0,1-5.14-5.58,21.65,21.65,0,0,1,2.61-16c3-4.92,7.74-6.75,13.26-7a34.13,34.13,0,0,1,11.65,1.76c.8.24.92.58.76,1.37q-2.38,12-4.67,23.92c-.17.88-.46,1.28-1.45,1.25C348.51,443.24,346.25,443.29,343.85,443.29Zm2.7-20.7c-3.15-.84-5.34-.17-6.63,2.09a17.15,17.15,0,0,0-2.06,9.8,2.21,2.21,0,0,0,2.4,2.16c1.78.05,3.19-.92,3.8-3.19C345,429.88,345.73,426.24,346.55,422.59Z" transform="translate(-117.95 -386.97)"/><path d="M458.06,415.74c-.64,3.36-1.26,6.57-1.86,9.77-.48,2.54-1,5.09-1.42,7.64-.3,1.71.13,2.8,1.14,3.22A2.9,2.9,0,0,0,459.6,435a29.93,29.93,0,0,0,1.77-5.78c.89-4.17,1.62-8.37,2.47-12.55.08-.35.51-.9.79-.91,2.91-.07,5.82,0,8.9,0l-1.38,7.13c-1.27,6.5-2.56,13-3.78,19.48-.16.81-.48,1-1.26,1-2.31,0-4.62,0-7.09,0v-2.83l-.45-.3a3.89,3.89,0,0,1-.51.92c-2.76,2.83-6.13,3.41-9.82,2.49-2.52-.63-4.13-2.85-4.4-5.66s.46-5.54,1-8.27c.89-4.62,1.8-9.22,2.71-13.9Z" transform="translate(-117.95 -386.97)"/><path d="M307.38,425.66a24.17,24.17,0,0,1-3.09,11.67c-2.53,4.5-6.65,6.38-11.62,6.57a20.91,20.91,0,0,1-5.12-.39c-4.76-1-7.29-4.09-7.44-8.93a24.72,24.72,0,0,1,3.45-13.38c2.4-4.12,6.25-6,10.87-6.13a23,23,0,0,1,6.61.71c3.88,1.05,6.07,4.08,6.33,8.09C307.41,424.47,307.38,425.07,307.38,425.66Zm-9.54.73c0-3.62-1.73-5-4.15-3.86a4.69,4.69,0,0,0-2,2.12,23.88,23.88,0,0,0-2.09,9c-.07,1.68.46,2.55,1.56,2.92a3.67,3.67,0,0,0,4-1.15,5.29,5.29,0,0,0,.56-.91A26.54,26.54,0,0,0,297.84,426.39Z" transform="translate(-117.95 -386.97)"/><path d="M421.43,435.32c-.66,2.33-1.23,4.4-1.84,6.45a1.21,1.21,0,0,1-.66.59,21,21,0,0,1-13.15,1c-4.5-1.16-7-4.32-7.18-9a23,23,0,0,1,3.51-13.1c2.57-4.15,6.53-6,11.26-6.2a22.52,22.52,0,0,1,5.12.35c4.92.92,6.62,4.44,6.05,8.89-.55,4.29-3.49,7-8.26,7.64-2.64.36-5.32.46-8,.67a3.26,3.26,0,0,0,2.59,4.25,19.15,19.15,0,0,0,9.18-1.09ZM409,427.14a48.5,48.5,0,0,0,5.2-.6A2.56,2.56,0,0,0,416,423.2c-.28-1.15-1.44-1.7-3-1.42C410.89,422.15,409.44,424,409,427.14Z" transform="translate(-117.95 -386.97)"/><path d="M278.4,436.29c-.59,2.13-1.11,4.13-1.72,6.11a1.42,1.42,0,0,1-.86.8,17.34,17.34,0,0,1-8.76.19,6.85,6.85,0,0,1-5.29-7.86c.57-4.06,1.4-8.09,2.12-12.13,0-.19.06-.38.12-.72h-4.32c.61-2.26,1.15-4.37,1.78-6.45.08-.27.65-.53,1-.55,2.94-.16,2.94-.14,3.48-3,.68-3.58.68-3.57,4.32-3.92,2-.19,4-.44,5.94-.67,0,0,.06,0,.21.16-.46,2.34-.93,4.74-1.43,7.33H282c-.64,2.46-1.23,4.7-1.84,7h-6.68c-.64,3.65-1.4,7.23-1.87,10.85-.28,2.18.81,3.18,3,3.16C275.86,436.6,277,436.42,278.4,436.29Z" transform="translate(-117.95 -386.97)"/><path d="M320.25,415.66v3.86c2.92-3.75,6.65-4.78,11.23-4-.87,2.64-1.72,5.18-2.58,7.8-.52-.05-1-.07-1.45-.14a6.59,6.59,0,0,0-7.4,4,59.37,59.37,0,0,0-2.12,7.93c-.55,2.41-.95,4.85-1.47,7.26-.07.33-.48.82-.74.83-2.91.06-5.81,0-8.91,0,.4-2.11.75-4.09,1.14-6.07,1.33-6.84,2.69-13.68,4-20.52.15-.8.44-1.07,1.23-1.05C315.49,415.69,317.81,415.66,320.25,415.66Z" transform="translate(-117.95 -386.97)"/><path d="M432.76,443.23h-9.48c.51-2.64,1-5.21,1.49-7.77,1.19-6.11,2.41-12.2,3.55-18.32.21-1.14.61-1.58,1.82-1.51,1.91.11,3.84.05,5.75,0,.74,0,1,.23.9,1s-.1,1.72-.16,3c3.07-3.91,6.82-4.91,11.35-4.08-.85,2.53-1.65,5-2.53,7.4-.07.21-.66.36-1,.33-4.85-.4-7.55,1.29-8.75,6-1.06,4.16-1.78,8.42-2.65,12.63C433,442.33,432.87,442.75,432.76,443.23Z" transform="translate(-117.95 -386.97)"/><path d="M254.6,443.24h-9.54c1.78-9.21,3.54-18.33,5.31-27.51H260C258.16,424.94,256.38,434.05,254.6,443.24Z" transform="translate(-117.95 -386.97)"/><path d="M255.85,413.1c-3.3,0-4.79-1-5-3.39-.28-3.1,1.32-5.33,4.35-5.84a10.39,10.39,0,0,1,3.1,0c3,.43,4.16,2.78,3.14,5.95C260.67,412.13,259,413.09,255.85,413.1Z" transform="translate(-117.95 -386.97)"/><path d="M473.58,404.05c-3.11,2.64-5.92,5.05-8.76,7.43a1.59,1.59,0,0,1-1,.35c-2.55,0-5.1,0-7.91,0,.69-.74,1.22-1.34,1.78-1.91,1.76-1.8,3.52-3.58,5.3-5.35a1.5,1.5,0,0,1,.88-.5C467,404,470.11,404.05,473.58,404.05Z" transform="translate(-117.95 -386.97)"/></svg>